<svg width="124" height="32" viewBox="0 0 124 32" fill="none" xmlns="http://www.w3.org/2000/svg">
<path d="M18.1009 25.5622C17.4503 26.0918 16.4249 26.5807 15.025 27.0289C13.6447 27.4771 12.3631 27.7011 11.18 27.7011C8.9519 27.7011 6.98995 27.2326 5.29423 26.2955C3.59851 25.3381 2.28726 24.0343 1.36053 22.3843C0.453508 20.7342 0 18.8804 0 16.8229C0 14.4191 0.492947 12.3412 1.47884 10.5893C2.46472 8.81702 3.79566 7.46235 5.47169 6.52526C7.14772 5.58817 8.98147 5.11964 10.973 5.11964C12.1758 5.11964 13.3095 5.27243 14.3743 5.57799C15.439 5.86318 16.3953 6.25025 17.2432 6.73915L16.2968 9.45871C15.6658 9.09203 14.8672 8.77629 13.9011 8.51145C12.9546 8.22627 12.0969 8.08366 11.3279 8.08366C9.67158 8.08366 8.20259 8.42995 6.92095 9.12259C5.659 9.81522 4.68296 10.8032 3.99286 12.0866C3.30275 13.37 2.95767 14.8673 2.95767 16.5785C2.95767 18.1674 3.30275 19.5832 3.99286 20.8259C4.68296 22.0685 5.659 23.0361 6.92095 23.7288C8.1829 24.401 9.62227 24.7371 11.2391 24.7371C11.9884 24.7371 12.718 24.6658 13.4278 24.5232C14.1377 24.3603 14.7292 24.1362 15.2024 23.851V19.4814H10.9434V16.6396H18.1009V25.5622ZM25.5529 17.8007C25.8684 17.1081 26.312 16.497 26.8838 15.9673C27.4754 15.4377 28.0965 15.0302 28.7472 14.745C29.3979 14.4599 29.9697 14.3071 30.4626 14.2867L30.3443 17.1285C29.457 17.0877 28.6486 17.2711 27.919 17.6785C27.2092 18.0859 26.6472 18.6563 26.2331 19.3897C25.8388 20.1027 25.6416 20.8666 25.6416 21.6814V27.4567H22.891V14.8062H25.3458L25.5529 17.8007ZM32.4265 21.0092C32.4265 19.7665 32.7124 18.6359 33.2842 17.6174C33.8757 16.5785 34.6841 15.7636 35.7095 15.1728C36.7545 14.5821 37.9277 14.2867 39.2291 14.2867C40.5307 14.2867 41.6841 14.5821 42.6898 15.1728C43.7148 15.7636 44.5037 16.5683 45.0559 17.5868C45.6276 18.6054 45.9136 19.7462 45.9136 21.0092C45.9136 22.2722 45.6276 23.4232 45.0559 24.4621C44.5037 25.4807 43.7148 26.2854 42.6898 26.8761C41.6643 27.4669 40.4911 27.7623 39.17 27.7623C37.8883 27.7623 36.7348 27.4872 35.7095 26.9372C34.6841 26.3668 33.8757 25.5723 33.2842 24.5538C32.7124 23.5352 32.4265 22.3537 32.4265 21.0092ZM35.2067 21.0398C35.2067 21.8342 35.3743 22.5676 35.7095 23.2398C36.0644 23.9121 36.5376 24.4417 37.1292 24.8288C37.7404 25.2159 38.4108 25.4094 39.1404 25.4094C40.284 25.4094 41.2304 24.9918 41.9799 24.1565C42.729 23.3213 43.1038 22.2824 43.1038 21.0398C43.1038 19.7971 42.729 18.7582 41.9799 17.923C41.2304 17.0674 40.284 16.6396 39.1404 16.6396C38.3911 16.6396 37.7207 16.8433 37.1292 17.2507C36.5376 17.6378 36.0644 18.1674 35.7095 18.8397C35.3743 19.5119 35.2067 20.2453 35.2067 21.0398ZM66.2392 14.8062L60.59 28.2206L56.6563 19.5425L53.0775 28.2206L47.3988 14.8062H50.1198L53.4029 22.4759L55.6803 16.9757L54.7042 14.8062H57.0999L60.4125 22.6593L63.5181 14.8062H66.2392ZM73.1546 9.24481V14.8367H76.4968V17.0979H73.1546V27.4567H70.3744V17.0979H68.1266V14.8367H70.3744V9.24481H73.1546ZM82.1472 13.2674C83.3315 11.7655 84.8716 11.0145 86.7683 11.0145C90.0708 11.0145 91.7364 12.9392 91.7651 16.7886V27.4567H89.0935V16.7737C89.0838 15.6099 88.8239 14.7495 88.3139 14.1925C87.8132 13.6355 87.0286 13.357 85.9596 13.357C85.093 13.357 84.3325 13.5957 83.678 14.0731C83.0231 14.5506 82.5131 15.1772 82.1472 15.9531V27.4567H79.4756V4.53906H82.1472V13.2674Z" fill="white"/>
<path d="M116.678 1.411L108.093 15.8291L116.678 30.3121L117.073 30.3932L123.002 31.642L113.532 15.8291L123.002 0L116.678 1.411Z" fill="url(#paint0_linear_6491_301)"/>
<path d="M103.26 15.7449L96.5721 26.8863L101.813 25.7768L107.739 15.7293L101.797 5.6817L96.5566 4.57227L103.26 15.7449Z" fill="url(#paint1_linear_6491_301)"/>
<defs>
<linearGradient id="paint0_linear_6491_301" x1="115.548" y1="0" x2="115.566" y2="42.9041" gradientUnits="userSpaceOnUse">
<stop stop-color="#1A82E3" stop-opacity="0.79"/>
<stop offset="1" stop-color="#7EB8EE"/>
</linearGradient>
<linearGradient id="paint1_linear_6491_301" x1="102.148" y1="4.57227" x2="102.094" y2="43.1276" gradientUnits="userSpaceOnUse">
<stop stop-color="#0085FF" stop-opacity="0.79"/>
<stop offset="1" stop-color="#B6DAFC"/>
</linearGradient>
</defs>
</svg>
